{
  "accessors": [
    {
      "bufferView": 2,
      "componentType": 5126,
      "count": 65532,
      "max": [
        0.5322999954223633,
        0.8942180275917053,
        0.5043830275535583
      ],
      "min": [
        -0.6982570290565491,
        -0.9520379900932312,
        -0.4833979904651642
      ],
      "type": "VEC3"
    },
    {
      "bufferView": 2,
      "byteOffset": 786384,
      "componentType": 5126,
      "count": 65532,
      "max": [
        1.0,
        0.9999997615814209,
        1.0
      ],
      "min": [
        -1.0,
        -1.0,
        -1.0
      ],
      "type": "VEC3"
    },
    {
      "bufferView": 3,
      "componentType": 5126,
      "count": 65532,
      "max": [
        0.9999999403953552,
        0.9999992847442627,
        0.9999999403953552,
        1.0
      ],
      "min": [
        -0.9999987483024597,
        -0.9999992847442627,
        -0.9999999403953552,
        -1.0
      ],
      "type": "VEC4"
    },
    {
      "bufferView": 1,
      "componentType": 5126,
      "count": 65532,
      "max": [
        0.9974780082702637,
        0.9978880286216736
      ],
      "min": [
        0.001664999988861382,
        0.00010901689529418945
      ],
      "type": "VEC2"
    },
    {
      "bufferView": 1,
      "byteOffset": 524256,
      "componentType": 5126,
      "count": 65532,
      "max": [
        0.9974780082702637,
        0.9978880286216736
      ],
      "min": [
        0.001664999988861382,
        0.00010901689529418945
      ],
      "type": "VEC2"
    },
    {
      "bufferView": 1,
      "byteOffset": 1048512,
      "componentType": 5126,
      "count": 65532,
      "max": [
        0.9974780082702637,
        0.9978880286216736
      ],
      "min": [
        0.001664999988861382,
        0.00010901689529418945
      ],
      "type": "VEC2"
    },
    {
      "bufferView": 1,
      "byteOffset": 1572768,
      "componentType": 5126,
      "count": 65532,
      "max": [
        0.9974780082702637,
        0.9978880286216736
      ],
      "min": [
        0.001664999988861382,
        0.00010901689529418945
      ],
      "type": "VEC2"
    },
    {
      "bufferView": 0,
      "componentType": 5125,
      "count": 338010,
      "type": "SCALAR"
    },
    {
      "bufferView": 2,
      "byteOffset": 1572768,
      "componentType": 5126,
      "count": 65532,
      "max": [
        0.6948559880256653,
        0.90208899974823,
        0.5042300224304199
      ],
      "min": [
        -0.6963620185852051,
        -0.95203697681427,
        -0.5048199892044067
      ],
      "type": "VEC3"
    },
    {
      "bufferView": 2,
      "byteOffset": 2359152,
      "componentType": 5126,
      "count": 65532,
      "max": [
        1.0,
        0.9999996423721313,
        1.0
      ],
      "min": [
        -1.0,
        -1.0,
        -1.0
      ],
      "type": "VEC3"
    },
    {
      "bufferView": 3,
      "byteOffset": 1048512,
      "componentType": 5126,
      "count": 65532,
      "max": [
        0.9999997019767761,
        0.9999999403953552,
        0.9999966621398926,
        1.0
      ],
      "min": [
        -1.0,
        -1.0,
        -0.9999920129776001,
        -1.0
      ],
      "type": "VEC4"
    },
    {
      "bufferView": 1,
      "byteOffset": 2097024,
      "componentType": 5126,
      "count": 65532,
      "max": [
        0.9987930059432983,
        0.9999939799308777
      ],
      "min": [
        2.099999983329326e-05,
        7.802248001098633e-05
      ],
      "type": "VEC2"
    },
    {
      "bufferView": 1,
      "byteOffset": 2621280,
      "componentType": 5126,
      "count": 65532,
      "max": [
        0.9987930059432983,
        0.9999939799308777
      ],
      "min": [
        2.099999983329326e-05,
        7.802248001098633e-05
      ],
      "type": "VEC2"
    },
    {
      "bufferView": 1,
      "byteOffset": 3145536,
      "componentType": 5126,
      "count": 65532,
      "max": [
        0.9987930059432983,
        0.9999939799308777
      ],
      "min": [
        2.099999983329326e-05,
        7.802248001098633e-05
      ],
      "type": "VEC2"
    },
    {
      "bufferView": 1,
      "byteOffset": 3669792,
      "componentType": 5126,
      "count": 65532,
      "max": [
        0.9987930059432983,
        0.9999939799308777
      ],
      "min": [
        2.099999983329326e-05,
        7.802248001098633e-05
      ],
      "type": "VEC2"
    },
    {
      "bufferView": 0,
      "byteOffset": 1352040,
      "componentType": 5125,
      "count": 325410,
      "type": "SCALAR"
    },
    {
      "bufferView": 2,
      "byteOffset": 3145536,
      "componentType": 5126,
      "count": 65532,
      "max": [
        0.6944270133972168,
        0.9519240260124207,
        0.3681640028953552
      ],
      "min": [
        -0.6977980136871338,
        -0.9520549774169922,
        -0.5048199892044067
      ],
      "type": "VEC3"
    },
    {
      "bufferView": 2,
      "byteOffset": 3931920,
      "componentType": 5126,
      "count": 65532,
      "max": [
        1.0,
        1.0,
        0.9999998807907104
      ],
      "min": [
        -1.0,
        -1.0,
        -1.0
      ],
      "type": "VEC3"
    },
    {
      "bufferView": 3,
      "byteOffset": 2097024,
      "componentType": 5126,
      "count": 65532,
      "max": [
        0.9999996423721313,
        0.9999995827674866,
        0.9999979138374329,
        1.0
      ],
      "min": [
        -0.9999992847442627,
        -1.0,
        -0.9999999403953552,
        -1.0
      ],
      "type": "VEC4"
    },
    {
      "bufferView": 1,
      "byteOffset": 4194048,
      "componentType": 5126,
      "count": 65532,
      "max": [
        0.9989389777183533,
        0.9999210238456726
      ],
      "min": [
        3.899999865097925e-05,
        5.698204040527344e-05
      ],
      "type": "VEC2"
    },
    {
      "bufferView": 1,
      "byteOffset": 4718304,
      "componentType": 5126,
      "count": 65532,
      "max": [
        0.9989389777183533,
        0.9999210238456726
      ],
      "min": [
        3.899999865097925e-05,
        5.698204040527344e-05
      ],
      "type": "VEC2"
    },
    {
      "bufferView": 1,
      "byteOffset": 5242560,
      "componentType": 5126,
      "count": 65532,
      "max": [
        0.9989389777183533,
        0.9999210238456726
      ],
      "min": [
        3.899999865097925e-05,
        5.698204040527344e-05
      ],
      "type": "VEC2"
    },
    {
      "bufferView": 1,
      "byteOffset": 5766816,
      "componentType": 5126,
      "count": 65532,
      "max": [
        0.9989389777183533,
        0.9999210238456726
      ],
      "min": [
        3.899999865097925e-05,
        5.698204040527344e-05
      ],
      "type": "VEC2"
    },
    {
      "bufferView": 0,
      "byteOffset": 2653680,
      "componentType": 5125,
      "count": 306045,
      "type": "SCALAR"
    },
    {
      "bufferView": 2,
      "byteOffset": 4718304,
      "componentType": 5126,
      "count": 21670,
      "max": [
        0.6433950066566467,
        0.6195160150527954,
        0.23754900693893433
      ],
      "min": [
        -0.697405993938446,
        -0.9519720077514648,
        -0.0014649999793618917
      ],
      "type": "VEC3"
    },
    {
      "bufferView": 2,
      "byteOffset": 4978344,
      "componentType": 5126,
      "count": 21670,
      "max": [
        1.0,
        0.9999908208847046,
        0.9999953508377075
      ],
      "min": [
        -0.9999997615814209,
        -0.9999991655349731,
        -0.9931902885437012
      ],
      "type": "VEC3"
    },
    {
      "bufferView": 3,
      "byteOffset": 3145536,
      "componentType": 5126,
      "count": 21670,
      "max": [
        0.9999922513961792,
        0.999998152256012,
        0.9999759197235107,
        1.0
      ],
      "min": [
        -0.9999850392341614,
        -0.9999545812606812,
        -0.999953031539917,
        -1.0
      ],
      "type": "VEC4"
    },
    {
      "bufferView": 1,
      "byteOffset": 6291072,
      "componentType": 5126,
      "count": 21670,
      "max": [
        0.9974430203437805,
        0.999983012676239
      ],
      "min": [
        0.00016500000492669642,
        0.00013500452041625977
      ],
      "type": "VEC2"
    },
    {
      "bufferView": 1,
      "byteOffset": 6464432,
      "componentType": 5126,
      "count": 21670,
      "max": [
        0.9974430203437805,
        0.999983012676239
      ],
      "min": [
        0.00016500000492669642,
        0.00013500452041625977
      ],
      "type": "VEC2"
    },
    {
      "bufferView": 1,
      "byteOffset": 6637792,
      "componentType": 5126,
      "count": 21670,
      "max": [
        0.9974430203437805,
        0.999983012676239
      ],
      "min": [
        0.00016500000492669642,
        0.00013500452041625977
      ],
      "type": "VEC2"
    },
    {
      "bufferView": 1,
      "byteOffset": 6811152,
      "componentType": 5126,
      "count": 21670,
      "max": [
        0.9974430203437805,
        0.999983012676239
      ],
      "min": [
        0.00016500000492669642,
        0.00013500452041625977
      ],
      "type": "VEC2"
    },
    {
      "bufferView": 0,
      "byteOffset": 3877860,
      "componentType": 5125,
      "count": 91527,
      "type": "SCALAR"
    }
  ],
  "asset": {
    "extras": {
      "author": "hhhhhhhhjjjjj (https://sketchfab.com/hhhhhhhhjjjjj)",
      "license": "CC-BY-4.0 (http://creativecommons.org/licenses/by/4.0/)",
      "source": "https://sketchfab.com/3d-models/slot-machine-1321f792be6f4c48a71feca1be5353e9",
      "title": "Slot Machine"
    },
    "generator": "Sketchfab-16.74.0",
    "version": "2.0"
  },
  "bufferViews": [
    {
      "buffer": 0,
      "byteLength": 4243968,
      "name": "floatBufferViews",
      "target": 34963
    },
    {
      "buffer": 0,
      "byteLength": 6984512,
      "byteOffset": 4243968,
      "byteStride": 8,
      "name": "floatBufferViews",
      "target": 34962
    },
    {
      "buffer": 0,
      "byteLength": 5238384,
      "byteOffset": 11228480,
      "byteStride": 12,
      "name": "floatBufferViews",
      "target": 34962
    },
    {
      "buffer": 0,
      "byteLength": 3492256,
      "byteOffset": 16466864,
      "byteStride": 16,
      "name": "floatBufferViews",
      "target": 34962
    }
  ],
  "buffers": [
    {
      "byteLength": 19959120,
      "uri": "scene.bin"
    }
  ],
  "images": [
    {
      "uri": "textures/material_0_baseColor.jpeg"
    },
    {
      "uri": "textures/material_0_metallicRoughness.png"
    },
    {
      "uri": "textures/material_0_normal.jpeg"
    }
  ],
  "materials": [
    {
      "doubleSided": true,
      "name": "material_0",
      "normalTexture": {
        "index": 2,
        "texCoord": 2
      },
      "pbrMetallicRoughness": {
        "baseColorTexture": {
          "index": 0
        },
        "metallicRoughnessTexture": {
          "index": 1,
          "texCoord": 1
        }
      }
    }
  ],
  "meshes": [
    {
      "name": "Object_0",
      "primitives": [
        {
          "attributes": {
            "NORMAL": 1,
            "POSITION": 0,
            "TANGENT": 2,
            "TEXCOORD_0": 3,
            "TEXCOORD_1": 4,
            "TEXCOORD_2": 5,
            "TEXCOORD_3": 6
          },
          "indices": 7,
          "material": 0,
          "mode": 4
        }
      ]
    },
    {
      "name": "Object_1",
      "primitives": [
        {
          "attributes": {
            "NORMAL": 9,
            "POSITION": 8,
            "TANGENT": 10,
            "TEXCOORD_0": 11,
            "TEXCOORD_1": 12,
            "TEXCOORD_2": 13,
            "TEXCOORD_3": 14
          },
          "indices": 15,
          "material": 0,
          "mode": 4
        }
      ]
    },
    {
      "name": "Object_2",
      "primitives": [
        {
          "attributes": {
            "NORMAL": 17,
            "POSITION": 16,
            "TANGENT": 18,
            "TEXCOORD_0": 19,
            "TEXCOORD_1": 20,
            "TEXCOORD_2": 21,
            "TEXCOORD_3": 22
          },
          "indices": 23,
          "material": 0,
          "mode": 4
        }
      ]
    },
    {
      "name": "Object_3",
      "primitives": [
        {
          "attributes": {
            "NORMAL": 25,
            "POSITION": 24,
            "TANGENT": 26,
            "TEXCOORD_0": 27,
            "TEXCOORD_1": 28,
            "TEXCOORD_2": 29,
            "TEXCOORD_3": 30
          },
          "indices": 31,
          "material": 0,
          "mode": 4
        }
      ]
    }
  ],
  "nodes": [
    {
      "children": [
        1
      ],
      "matrix": [
        1.0,
        0.0,
        0.0,
        0.0,
        0.0,
        2.220446049250313e-16,
        -1.0,
        0.0,
        0.0,
        1.0,
        2.220446049250313e-16,
        0.0,
        0.0,
        0.0,
        0.0,
        1.0
      ],
      "name": "Sketchfab_model"
    },
    {
      "children": [
        2
      ],
      "name": "root"
    },
    {
      "children": [
        3
      ],
      "matrix": [
        1.0,
        0.0,
        0.0,
        0.0,
        0.0,
        2.220446049250313e-16,
        1.0,
        0.0,
        0.0,
        -1.0,
        2.220446049250313e-16,
        0.0,
        0.0,
        0.0,
        0.0,
        1.0
      ],
      "name": "GLTF_SceneRootNode"
    },
    {
      "children": [
        4,
        5,
        6,
        7
      ],
      "name": "_0"
    },
    {
      "mesh": 0,
      "name": "Object_4"
    },
    {
      "mesh": 1,
      "name": "Object_5"
    },
    {
      "mesh": 2,
      "name": "Object_6"
    },
    {
      "mesh": 3,
      "name": "Object_7"
    }
  ],
  "samplers": [
    {
      "magFilter": 9729,
      "minFilter": 9987,
      "wrapS": 10497,
      "wrapT": 10497
    }
  ],
  "scene": 0,
  "scenes": [
    {
      "name": "Sketchfab_Scene",
      "nodes": [
        0
      ]
    }
  ],
  "textures": [
    {
      "sampler": 0,
      "source": 0
    },
    {
      "sampler": 0,
      "source": 1
    },
    {
      "sampler": 0,
      "source": 2
    }
  ]
}
